# AST/ASF file generated using VICON BodyLanguage
# -----------------------------------------------
:version 1.10
:name VICON
:units
  mass 1.0
  length 0.45
  angle deg
:documentation
   .ast/.asf automatically generated from VICON data using
   VICON BodyBuilder and BodyLanguage model FoxedUp or BRILLIANT.MOD
:root
   order TX TY TZ RX RY RZ
   axis XYZ
   position 0 0 0  
   orientation 0 0 0 
:bonedata
  begin
     id 1 
     name lhipjoint
     direction 0.630082 -0.636569 0.44472 
     length 2.82754 
     axis 0 0 0  XYZ
  end
  begin
     id 2 
     name lfemur
     direction 0.34202 -0.939693 0  
     length 7.26371  
     axis 0 0 20  XYZ
    dof rx ry rz
    limits (-160.0 20.0)
           (-70.0 70.0)
           (-60.0 70.0)
  end
  begin
     id 3 
     name ltibia
     direction 0.34202 -0.939693 0   
     length 7.88616   
     axis 0 0 20   XYZ
    dof rx
    limits (-10.0 170.0)
  end
  begin
     id 4 
     name lfoot
     direction 0.0603448 -0.165796 0.984312   
     length 1.77861   
     axis -90 7.62852e-016 20   XYZ
    dof rx rz
    limits (-45.0 90.0)
           (-70.0 20.0)
  end
  begin
     id 5 
     name ltoes
     direction 1.53577e-011 -4.21876e-011 1   
     length 0.902235   
     axis -90 7.62852e-016 20   XYZ
    dof rx
    limits (-90.0 20.0)
  end
  begin
     id 6 
     name rhipjoint
     direction -0.656778 -0.61817 0.431866   
     length 2.9117  
     axis 0 0 0  XYZ 
  end
  begin
     id 7 
     name rfemur
     direction -0.34202 -0.939693 0   
     length 6.81603   
     axis 0 0 -20   XYZ
    dof rx ry rz
    limits (-160.0 20.0)
           (-70.0 70.0)
           (-70.0 60.0)
  end
  begin
     id 8 
     name rtibia
     direction -0.34202 -0.939693 0   
     length 8.05997   
     axis 0 0 -20   XYZ
    dof rx
    limits (-10.0 170.0)
 end
 begin
     id 9 
     name rfoot
     direction -0.0862404 -0.236944 0.967688   
     length 1.84899  
     axis -90 -7.62852e-016 -20   XYZ
    dof rx rz
    limits (-45.0 90.0)
           (-20.0 70.0)
  end
  begin
     id 10 
     name rtoes
     direction -1.53561e-011 -4.21798e-011 1   
     length 0.931579   
     axis -90 -7.62852e-016 -20   XYZ
    dof rx
    limits (-90.0 20.0)
  end
  begin
     id 11 
     name lowerback
     direction -0.0110203 0.991769 -0.127564   
     length 2.05686   
     axis 0 0 0   XYZ
    dof rx ry rz
    limits (-20.0 45.0)
           (-30.0 30.0)
           (-30.0 30.0)
  end
  begin
     id 12 
     name upperback
     direction 0.0109719 0.99993 -0.00432479   
     length 2.06234   
     axis 0 0 0   XYZ
    dof rx ry rz
    limits (-20.0 45.0)
           (-30.0 30.0)
           (-30.0 30.0)
  end
  begin
     id 13 
     name thorax
     direction 0.0173308 0.998351 0.0547306   
     length 2.09856   
     axis 0 0 0   XYZ
    dof rx ry rz
    limits (-20.0 45.0)
           (-30.0 30.0)
           (-30.0 30.0)
  end
  begin
     id 14 
     name lowerneck
     direction -0.0311736 0.989033 0.144366   
     length 1.98151   
     axis 0 0 0   XYZ
    dof rx ry rz
    limits (-20.0 45.0)
           (-30.0 30.0)
           (-30.0 30.0)
  end
  begin
     id 15 
     name upperneck
     direction 0.0421057 0.975772 -0.214698   
     length 2.01457   
     axis 0 0 0   XYZ
    dof rx ry rz
    limits (-20.0 45.0)
           (-30.0 30.0)
           (-30.0 30.0)
  end
  begin
     id 16
     name head
     direction 0.0136911 0.995958 -0.0887718  
     length 2.03562  
     axis 0 0 0   XYZ
    dof rx ry rz
    limits (-20.0 45.0)
           (-30.0 30.0)
           (-30.0 30.0)
  end
  begin
     id 17 
     name lclavicle
     direction 0.915335 0.396201 0.0720134  
     length 4.16217  
     axis 0 0 0   XYZ
    dof ry rz
    limits (-20.0 10.0)
           (0.0 20.0)
  end
  begin
     id 18 
     name lhumerus
     direction 1 -4.48965e-011 6.383e-018   
     length 4.93042   
     axis -180 -30 -90   XYZ
    dof rx ry rz
    limits (-60.0 90.0)
           (-90.0 90.0)
           (-90.0 90.0)
  end
  begin
     id 19
     name lradius
     direction 1 -4.48972e-011 8.8689e-027   
     length 3.68177   
     axis -180 -30 -90   XYZ
    dof rx
    limits (-10.0 170.0)
  end
  begin
     id 20
     name lwrist
     direction 1 -4.48953e-011 1.17971e-026   
     length 1.84089   
     axis -7.69454e-015 90 90   XYZ
    dof ry
    limits (-180.0 0.0)
 end
  begin
     id 21 
     name lhand
     direction 1 -4.49027e-011 2.35802e-026   
     length 0.721479   
     axis -1.50533e-014 90 90   XYZ
    dof rx rz
    limits (-90.0 90.0)
           (-45.0 45.0)
  end
  begin
     id 22 
     name lfingers
     direction 1 -4.48915e-011 4.72027e-026   
     length 0.581675   
     axis -3.01059e-014 90 90   XYZ
    dof rx
    limits (0.0 90.0)
  end
  begin
     id 23
     name lthumb
     direction 0.707107 -6.34948e-011 0.707107   
     length 0.835172   
     axis -90 45 -5.12164e-014   XYZ
    dof rx rz
    limits (-45.0 45.0)
           (-45.0 45.0)
  end
  begin
     id 24 
     name rclavicle
     direction -0.882781 0.469197 0.0234974   
     length 3.95647  
     axis 0 0 0   XYZ 
    dof ry rz
    limits (-10.0 20.0)
           (-20.0 0.0)
  end
  begin
     id 25 
     name rhumerus
     direction -1 -4.48965e-011 -1.54906e-018  
     length 5.07905   
     axis -180 30 90   XYZ
    dof rx ry rz
    limits (-90.0 60.0)
           (-90.0 90.0)
           (-90.0 90.0)
  end
  begin
     id 26 
     name rradius
     direction -1 -4.48972e-011 5.47489e-027   
     length 3.54394   
     axis -180 30 90   XYZ
    dof rx
    limits (-10.0 170.0)
  end
  begin
     id 27 
     name rwrist
     direction -1 -4.48955e-011 1.17969e-026   
     length 1.77197   
     axis -7.69454e-015 -90 -90   XYZ
    dof ry
    limits (-180.0 0.0)
  end
  begin
     id 28
     name rhand
     direction -1 -4.48982e-011 2.35888e-026   
     length 0.681156   
     axis -1.50533e-014 -90 -90   XYZ
    dof rx rz
    limits (-90.0 90.0)
           (-45.0 45.0)
  end
  begin
     id 29
     name rfingers
     direction -1 -4.48955e-011 4.71877e-026   
     length 0.549165   
     axis -3.01059e-014 -90 -90   XYZ
    dof rx
    limits (0.0 90.0)
  end
  begin
     id 30
     name rthumb
     direction -0.707107 -6.3491e-011 0.707107   
     length 0.788495   
     axis -90 -45 5.12164e-014   XYZ
    dof rx rz
    limits (-45.0 45.0)
           (-45.0 45.0)
  end
:hierarchy
  begin
    root lhipjoint rhipjoint lowerback
    lhipjoint lfemur
    lfemur ltibia
    ltibia lfoot
    lfoot ltoes
    rhipjoint rfemur
    rfemur rtibia
    rtibia rfoot
    rfoot rtoes
    lowerback upperback
    upperback thorax
    thorax lowerneck lclavicle rclavicle
    lowerneck upperneck
    upperneck head
    lclavicle lhumerus
    lhumerus lradius
    lradius lwrist
    lwrist lhand lthumb
    lhand lfingers
    rclavicle rhumerus
    rhumerus rradius
    rradius rwrist
    rwrist rhand rthumb
    rhand rfingers
  end

#!OML:ASF H:\Bending\Project 1\Capture day 1\Session 1\Subject.ASF
:FULLY-SPECIFIED
:DEGREES
1
root -11.464 17.9809 -16.699 174.275 86.3862 172.316
lowerback 8.89604 0.468919 0.407207
upperback -0.701007 0.719084 0.739636
thorax -5.73193 0.356738 0.443761
lowerneck -20.2797 -4.57317 -6.10117
upperneck 34.8989 -4.06855 1.33259
head 16.0078 -2.00227 0.934355
rclavicle 2.31087e-015 3.57812e-015
rhumerus -35.0289 -10.3368 -76.0953
rradius 32.0211
rwrist 22.5674
rhand -18.6481 -13.6091
rfingers 7.12502
rthumb 7.64483 -43.451
lclavicle 2.31087e-015 3.57812e-015
lhumerus -31.2631 3.86038 87.8147
lradius 36.4051
lwrist 14.9734
lhand -36.2799 6.43462
lfingers 7.12502
lthumb -9.37989 36.2059
rfemur 4.82264 -7.56035 10.7021
rtibia -2.3059e-014
rfoot -5.94815 -8.00442
rtoes -15.2614
lfemur -12.7479 -12.1389 -15.0849
ltibia 23.9127
lfoot -16.4536 10.032
ltoes -33.1716
2
root -11.416 17.9786 -16.6547 174.081 86.1203 172.181
lowerback 8.6597 0.449107 0.537142
upperback -0.812388 0.709371 0.819873
thorax -5.71457 0.349084 0.457177
lowerneck -20.2927 -4.53883 -6.25807
upperneck 34.6986 -4.00489 1.42728
head 15.9171 -1.9861 1.01283
rclavicle 6.4605e-015 -1.98785e-015
rhumerus -35.0691 -9.73586 -76.0972
rradius 31.5401
rwrist 22.6865
rhand -18.3936 -13.5048
rfingers 7.12502
rthumb 7.89049 -43.3376
lclavicle 6.4605e-015 -1.98785e-015
lhumerus -30.9515 6.45217 87.5233
lradius 33.7922
lwrist 13.1703
lhand -36.0692 5.91162
lfingers 7.12502
lthumb -9.1766 35.6919
rfemur 5.11892 -7.81014 10.7637
rtibia -7.15625e-015
rfoot -6.10799 -7.94151
rtoes -14.5681
lfemur -12.5023 -12.5132 -15.0241
ltibia 23.7819
lfoot -16.5434 10.1827
ltoes -33.2147
3
root -11.3697 17.9799 -16.6081 174.26 85.852 172.342
lowerback 8.38248 0.433675 0.576019
upperback -0.960954 0.69714 0.929026
thorax -5.71443 0.343505 0.552428
lowerneck -20.3 -4.50473 -6.35769
upperneck 34.4689 -3.96839 1.5252
head 15.81 -1.97338 1.07693
rclavicle -3.72721e-015 5.56597e-015
rhumerus -35.1578 -9.00926 -76.0824
rradius 31.0123
rwrist 22.6502
rhand -18.1885 -13.3869
rfingers 7.12502
rthumb 8.08843 -43.2121
lclavicle -3.72721e-015 5.56597e-015
lhumerus -30.7752 9.41856 87.0389
lradius 31.1103
lwrist 11.1224
lhand -35.9896 5.4352
lfingers 7.12502
lthumb -9.09977 35.2189
rfemur 5.35616 -8.07747 10.8854
rtibia -1.59028e-014
rfoot -6.30285 -7.92503
rtoes -13.395
lfemur -12.3267 -12.8974 -14.9141
ltibia 23.599
lfoot -16.578 10.3909
ltoes -33.4239
4
root -11.3244 17.983 -16.56 174.656 85.5585 172.675
lowerback 8.08845 0.401579 0.549682
upperback -1.13773 0.656613 1.0447
thorax -5.73478 0.326328 0.69475
lowerneck -20.3093 -4.46148 -6.38378
upperneck 34.2242 -3.94862 1.62327
head 15.6948 -1.95811 1.12462
rclavicle 2.98177e-015 9.54166e-015
rhumerus -35.2918 -8.07826 -76.1243
rradius 30.4575
rwrist 22.3329
rhand -18.1186 -13.3839
rfingers 7.12502
rthumb 8.15587 -43.2065
lclavicle 2.98177e-015 9.54166e-015
lhumerus -30.8006 12.4957 86.3497
lradius 28.4987
lwrist 9.09146
lhand -36.0804 5.11569
lfingers 7.12502
lthumb -9.18742 34.8955
rfemur 5.57355 -8.37893 11.0404
rtibia -1.11319e-014
rfoot -6.56965 -7.95365
rtoes -12.2099
lfemur -12.2173 -13.3171 -14.7735
ltibia 23.4257
lfoot -16.5995 10.6361
ltoes -33.7758
5
root -11.2793 17.9859 -16.5127 175.188 85.2276 173.122
lowerback 7.79087 0.337696 0.500792
upperback -1.32945 0.571514 1.1512
thorax -5.76805 0.288076 0.845587
lowerneck -20.3312 -4.40471 -6.34631
upperneck 33.9753 -3.93441 1.72351
head 15.5791 -1.93678 1.16062
rclavicle -6.90777e-015 1.59028e-015
rhumerus -35.4524 -6.97586 -76.2416
rradius 29.8905
rwrist 21.7212
rhand -18.233 -13.5491
rfingers 7.12502
rthumb 8.0455 -43.376
lclavicle -6.90777e-015 1.59028e-015
lhumerus -31.0513 15.4063 85.4897
lradius 26.0669
lwrist 7.33187
lhand -36.321 5.01617
lfingers 7.12502
lthumb -9.41955 34.7857
rfemur 5.79103 -8.72184 11.201
rtibia -3.97569e-015
rfoot -6.9152 -7.98823
rtoes -11.306
lfemur -12.1363 -13.8234 -14.6194
ltibia 23.2532
lfoot -16.6354 10.9261
ltoes -34.1547
6
root -11.2341 17.9873 -16.4691 175.787 84.8728 173.636
lowerback 7.49871 0.244505 0.468052
upperback -1.52028 0.448631 1.24247
thorax -5.802 0.230736 0.975659
lowerneck -20.3722 -4.33816 -6.27359
upperneck 33.7223 -3.92107 1.82966
head 15.4656 -1.9108 1.19221
rclavicle 1.03368e-014 -1.07344e-014
rhumerus -35.6126 -5.87593 -76.3768
rradius 29.3243
rwrist 20.9484
rhand -18.5032 -13.8358
rfingers 7.12502
rthumb 7.78467 -43.6725
lclavicle 1.03368e-014 -1.07344e-014
lhumerus -31.5052 17.9547 84.5225
lradius 23.8813
lwrist 5.97027
lhand -36.6323 5.11953
lfingers 7.12502
lthumb -9.71988 34.8752
rfemur 6.01217 -9.08884 11.3474
rtibia 0
rfoot -7.30888 -7.98386
rtoes -10.7284
lfemur -12.0629 -14.4656 -14.4663
ltibia 23.1048
lfoot -16.7412 11.2869
ltoes -34.4063
7
root -11.1891 17.9869 -16.4311 176.385 84.5286 174.162
lowerback 7.21958 0.141343 0.470862
upperback -1.69622 0.315456 1.32024
thorax -5.82659 0.16711 1.07222
lowerneck -20.4288 -4.27277 -6.20002
upperneck 33.4526 -3.91392 1.94681
head 15.3491 -1.88639 1.22628
rclavicle -6.73383e-015 2.38542e-015
rhumerus -35.7419 -5.06651 -76.4078
rradius 28.769
rwrist 20.2811
rhand -18.8182 -14.1278
rfingers 7.12502
rthumb 7.48064 -43.9755
lclavicle -6.73383e-015 2.38542e-015
lhumerus -32.1159 20.09 83.5027
lradius 21.9699
lwrist 4.93638
lhand -36.9048 5.3352
lfingers 7.12502
lthumb -9.98279 35.0785
rfemur 6.22942 -9.44336 11.471
rtibia -1.59028e-014
rfoot -7.69941 -7.91789
rtoes -10.3189
lfemur -11.9803 -15.2606 -14.3258
ltibia 22.9941
lfoot -16.9586 11.749
ltoes -34.4186
8
root -11.1454 17.9853 -16.3991 176.919 84.2362 174.641
lowerback 6.9625 0.0548589 0.502462
upperback -1.84912 0.206948 1.39006
thorax -5.83931 0.114614 1.14059
lowerneck -20.4884 -4.22177 -6.15296
upperneck 33.1473 -3.92525 2.08059
head 15.22 -1.87167 1.26742
rclavicle -2.05866e-014 -7.95139e-016
rhumerus -35.8176 -4.86266 -76.1923
rradius 28.2329
rwrist 20.0423
rhand -19.0206 -14.3048
rfingers 7.12502
rthumb 7.28527 -44.1594
lclavicle -2.05866e-014 -7.95139e-016
lhumerus -32.8428 21.9027 82.4393
lradius 20.3345
lwrist 3.9902
lhand -37.0389 5.5411
lfingers 7.12502
lthumb -10.1122 35.2781
rfemur 6.43055 -9.74382 11.5731
rtibia -1.19271e-014
rfoot -8.04249 -7.79967
rtoes -9.83025
lfemur -11.8789 -16.1708 -14.2048
ltibia 22.9206
lfoot -17.2954 12.3183
ltoes -34.1674
9
root -11.1041 17.9832 -16.3718 177.36 84.0268 175.038
lowerback 6.73699 0.00580437 0.536559
upperback -1.97863 0.148649 1.4577
thorax -5.84604 0.0868025 1.19886
lowerneck -20.5349 -4.19421 -6.14419
upperneck 32.7932 -3.96594 2.23463
head 15.0699 -1.87228 1.31706
rclavicle 4.17448e-015 1.82882e-014
rhumerus -35.8426 -5.47671 -75.6336
rradius 27.7341
rwrist 20.4779
rhand -18.973 -14.3096
rfingers 7.12502
rthumb 7.33123 -44.1626
lclavicle 4.17448e-015 1.82882e-014
lhumerus -33.6668 23.5365 81.2994
lradius 18.9658
lwrist 2.85992
lhand -36.9813 5.64229
lfingers 7.12502
lthumb -10.0566 35.382
rfemur 6.60282 -9.95985 11.6622
rtibia 7.95139e-015
rfoot -8.32244 -7.65917
rtoes -9.04768
lfemur -11.7601 -17.1043 -14.1026
ltibia 22.8712
lfoot -17.7171 12.9574
ltoes -33.737
